<?xml version="1.0" encoding="UTF-8" standalone="no"?>
<svg
   xmlns:dc="http://purl.org/dc/elements/1.1/"
   xmlns:cc="http://creativecommons.org/ns#"
   xmlns:rdf="http://www.w3.org/1999/02/22-rdf-syntax-ns#"
   xmlns:svg="http://www.w3.org/2000/svg"
   xmlns="http://www.w3.org/2000/svg"
   viewBox="0 0 334.84 171.39999"
   height="171.39999"
   width="334.84"
   xml:space="preserve"
   id="svg2"
   version="1.1"><metadata
     id="metadata8"><rdf:RDF><cc:Work
         rdf:about=""><dc:format>image/svg+xml</dc:format><dc:type
           rdf:resource="http://purl.org/dc/dcmitype/StillImage" /></cc:Work></rdf:RDF></metadata><defs
     id="defs6" /><g
     transform="matrix(1.3333333,0,0,-1.3333333,0,171.4)"
     id="g10"><g
       transform="scale(0.1)"
       id="g12"><path
         id="path14"
         style="fill:#a11624;fill-opacity:1;fill-rule:nonzero;stroke:none"
         d="m 1868.58,865.906 c -97.1,0 -179.65,-62.019 -210.35,-148.582 h 199.67 l 9.69,60.406 152.18,-137.062 -195.38,-132.922 12.41,77.527 h -183.88 c 25.36,-95.398 112.28,-165.703 215.66,-165.703 123.25,0 223.17,99.903 223.17,223.176 0,123.242 -99.92,223.16 -223.17,223.16" /><path
         id="path16"
         style="fill:#a11624;fill-opacity:1;fill-rule:nonzero;stroke:none"
         d="m 336.82,421.918 4.418,154.715 c 1.77,41.562 4.438,83.984 7.086,125.539 h -1.765 C 334.18,660.617 323.563,618.195 309.426,576.633 L 260.813,421.918 Z M 335.063,194.73 v 85.739 H 213.953 L 185.66,194.73 H 0 L 265.219,861.293 H 485.352 L 521.582,194.73 H 335.063" /><path
         id="path18"
         style="fill:#a11624;fill-opacity:1;fill-rule:nonzero;stroke:none"
         d="m 913.801,194.73 -6.184,270.504 c -0.879,53.938 4.43,100.793 5.313,146.758 h -1.77 C 899.668,566.027 889.941,519.172 873.141,465.234 L 792.703,194.73 H 617.656 l -43.32,666.563 h 177.695 l -2.652,-268.734 c -0.871,-49.508 -2.641,-98.141 -4.406,-147.645 h 1.765 c 13.242,49.504 21.211,98.137 37.996,147.645 l 89.289,268.734 h 154.707 l 3.53,-268.734 c 0.89,-48.633 -1.77,-96.368 -2.65,-145 h 1.77 c 12.38,41.554 22.11,92.832 38.02,145 l 82.22,268.734 h 175.91 L 1087.98,194.73 H 913.801" /><path
         id="path20"
         style="fill:#a11624;fill-opacity:1;fill-rule:nonzero;stroke:none"
         d="m 1275.34,194.73 105.19,666.563 h 180.34 l -80.43,-509.199 h 135.25 L 1590.95,194.73 h -315.61" /><path
         id="path22"
         style="fill:#a11624;fill-opacity:1;fill-rule:nonzero;stroke:none"
         d="m 1868.59,1285.49 c -261.53,0 -486.56,-156.21 -586.93,-380.4 h 203.26 c 83.73,122.21 224.33,202.42 383.67,202.42 256.67,0 464.75,-208.08 464.75,-464.764 0,-256.691 -208.08,-464.766 -464.75,-464.766 -83.44,0 -161.74,22.008 -229.44,60.52 l -12.82,-81.52 H 1447.67 C 1560.44,59.1797 1707.61,0 1868.59,0 c 354.98,0 642.75,287.758 642.75,642.746 0,354.981 -287.77,642.744 -642.75,642.744" /></g></g></svg>